<?xml version="1.0"?>
<svg xmlns="http://www.w3.org/2000/svg" xmlns:xlink="http://www.w3.org/1999/xlink" version="1.1" xml:space="preserve">
  <defs>

    <symbol id="loader" width="100%" height="100%" viewBox="22 22 44 44">
      <circle cx="44" cy="44" r="20.2" fill="none" stroke="currentColor" stroke-width="4"></circle>
    </symbol>

    <symbol id="burger" width="100%" height="100%" viewBox="0 0 48 48">
      <path d="M41,14H7a2,2,0,0,1,0-4H41A2,2,0,0,1,41,14Z" fill="currentColor"/>
      <path d="M41,26H7a2,2,0,0,1,0-4H41A2,2,0,0,1,41,26Z" fill="currentColor"/>
      <path d="M41,38H7a2,2,0,0,1,0-4H41A2,2,0,0,1,41,38Z" fill="currentColor"/>
    </symbol>

    <symbol id="close" width="100%" height="100%" viewBox="0 0 16 16">
      <path d="M1 15L15 1M1 1L15 15" stroke="currentColor" stroke-width="2" stroke-linecap="round" stroke-linejoin="round"/>
    </symbol>

    <symbol id="arrow-left" width="100%" height="100%" viewBox="0 0 11 18">
      <path d="M3.76777 9L9.88388 2.88388C10.372 2.39573 10.372 1.60427 9.88388 1.11612C9.39573 0.627961 8.60427 0.627961 8.11612 1.11612L1.11612 8.11612C0.62796 8.60427 0.62796 9.39573 1.11612 9.88388L8.11612 16.8839C8.60427 17.372 9.39573 17.372 9.88388 16.8839C10.372 16.3957 10.372 15.6043 9.88388 15.1161L3.76777 9Z" fill="currentColor"/>
    </symbol>

    <symbol id="arrow-right" width="100%" height="100%" viewBox="0 0 11 18">
      <path d="M7.23223 9L1.11612 2.88388C0.627961 2.39573 0.627961 1.60427 1.11612 1.11612C1.60427 0.627961 2.39573 0.627961 2.88388 1.11612L9.88388 8.11612C10.372 8.60427 10.372 9.39573 9.88388 9.88388L2.88388 16.8839C2.39573 17.372 1.60427 17.372 1.11612 16.8839C0.627961 16.3957 0.627961 15.6043 1.11612 15.1161L7.23223 9Z" fill="currentColor"/>
    </symbol>

    <symbol id="ok" width="100%" height="100%" viewBox="0 0 24 24">
      <path d="M12.0108 9.94543C13.1567 9.94126 14.0693 9.02079 14.0651 7.87247C14.0609 6.72366 13.1464 5.80958 12 5.80859C10.8441 5.80737 9.92091 6.73839 9.92975 7.89751C9.93834 9.04166 10.8613 9.94961 12.0108 9.94543Z" fill="currentColor"/>
      <path d="M12 0C5.37256 0 0 5.37281 0 12C0 18.6272 5.37256 24 12 24C18.6274 24 24 18.6272 24 12C24 5.37281 18.6274 0 12 0ZM12.0172 3.64923C14.3546 3.65561 16.2306 5.56751 16.2186 7.93068C16.2068 10.2393 14.3001 12.1105 11.9666 12.1026C9.65696 12.0948 7.76274 10.1799 7.77649 7.8666C7.7895 5.52798 9.68471 3.64284 12.0172 3.64923ZM16.7514 13.7634C16.2346 14.2939 15.6124 14.6779 14.9215 14.9458C14.2684 15.1989 13.5527 15.3264 12.8441 15.4113C12.9514 15.5277 13.0017 15.5849 13.0685 15.6517C14.03 16.6183 14.9961 17.58 15.9544 18.5494C16.281 18.8798 16.349 19.2894 16.1692 19.6731C15.9731 20.093 15.5328 20.3689 15.101 20.3392C14.8275 20.3203 14.6141 20.1846 14.4248 19.9938C13.699 19.2636 12.9595 18.5464 12.249 17.8025C12.0415 17.5859 11.9423 17.6272 11.7594 17.8152C11.0294 18.567 10.2875 19.3068 9.54132 20.0426C9.20618 20.3731 8.80745 20.433 8.41854 20.244C8.00532 20.0441 7.74261 19.6221 7.76274 19.1975C7.77698 18.9113 7.91791 18.6918 8.11482 18.4958C9.06672 17.5459 10.0157 16.593 10.9649 15.6409C11.028 15.5778 11.0864 15.5108 11.178 15.4125C9.88334 15.2773 8.71587 14.9586 7.71634 14.1771C7.5921 14.0798 7.46418 13.986 7.35124 13.877C6.91347 13.4569 6.86952 12.9755 7.21547 12.48C7.51182 12.0557 8.00876 11.9423 8.52559 12.1861C8.62576 12.233 8.72102 12.2924 8.81236 12.3553C10.6749 13.6352 13.2338 13.6703 15.1037 12.4125C15.2888 12.2711 15.4869 12.1547 15.7165 12.096C16.1624 11.9811 16.5788 12.1454 16.8179 12.5357C17.0917 12.9819 17.0885 13.4169 16.7514 13.7634Z" fill="currentColor"/>
    </symbol>

    <symbol id="yt" width="100%" height="100%" viewBox="0 0 24 24">
      <path d="M10.5049 14.2483L14.4083 12.0001L10.5049 9.75195V14.2483Z" fill="currentColor"/>
      <path d="M12 0C5.3736 0 0 5.3736 0 12C0 18.6264 5.3736 24 12 24C18.6264 24 24 18.6264 24 12C24 5.3736 18.6264 0 12 0ZM19.4982 12.0123C19.4982 12.0123 19.4982 14.4459 19.1895 15.6194C19.0164 16.2618 18.5099 16.7682 17.8676 16.9411C16.6941 17.25 12 17.25 12 17.25C12 17.25 7.31818 17.25 6.13239 16.9288C5.49005 16.756 4.98358 16.2493 4.81055 15.607C4.50165 14.4459 4.50165 12 4.50165 12C4.50165 12 4.50165 9.56653 4.81055 8.39301C4.9834 7.75067 5.50232 7.23175 6.13239 7.0589C7.30591 6.75 12 6.75 12 6.75C12 6.75 16.6941 6.75 17.8676 7.07117C18.5099 7.24402 19.0164 7.75067 19.1895 8.39301C19.5106 9.56653 19.4982 12.0123 19.4982 12.0123Z" fill="currentColor"/>
    </symbol>

    <symbol id="rt" width="100%" height="100%" viewBox="0 0 24 24">
      <path fill-rule="evenodd" clip-rule="evenodd" d="M12 24C18.6274 24 24 18.6274 24 12C24 5.37258 18.6274 0 12 0C5.37258 0 0 5.37258 0 12C0 18.6274 5.37258 24 12 24ZM21.0002 5.49432C21.0002 6.31961 20.3312 6.98865 19.5059 6.98865C18.6806 6.98865 18.0116 6.31961 18.0116 5.49432C18.0116 4.66903 18.6806 4 19.5059 4C20.3312 4 21.0002 4.66903 21.0002 5.49432ZM5 6.85067H7.75875V6.85071H7.80448H15.2991C16.9751 6.85071 18.3337 8.20936 18.3337 9.88533V10.69V11.4946C18.3337 12.8697 17.4191 14.0312 16.1649 14.4039L18.9538 18.2537L15.8043 18.2537L13.3129 14.5292H7.80448H7.75875V18.2535H5V6.85067ZM15.2991 12.0464H7.80448V9.33358L15.2991 9.33358C15.6038 9.33358 15.8508 9.58061 15.8508 9.88533V10.69V11.4946C15.8508 11.7993 15.6038 12.0464 15.2991 12.0464Z" fill="currentColor"/>
    </symbol>

    <symbol id="vk" width="100%" height="100%" viewBox="0 0 24 24">
      <path d="M12 0C5.37281 0 0 5.37256 0 12C0 18.6274 5.37281 24 12 24C18.6272 24 24 18.6274 24 12C24 5.37256 18.6272 0 12 0ZM18.087 13.2978C18.6463 13.8441 19.2381 14.3583 19.7402 14.961C19.9626 15.2277 20.1723 15.5034 20.3319 15.8135C20.5597 16.2557 20.354 16.7406 19.9582 16.7669L17.4997 16.7664C16.8648 16.8189 16.3595 16.5628 15.9335 16.1287C15.5935 15.7828 15.278 15.4133 14.9505 15.0556C14.8167 14.9087 14.6757 14.7705 14.5078 14.6617C14.1726 14.4437 13.8815 14.5105 13.6895 14.8606C13.4938 15.2169 13.4491 15.6117 13.4304 16.0082C13.4037 16.5879 13.2288 16.7394 12.6472 16.7666C11.4044 16.8248 10.2251 16.6362 9.12908 16.0097C8.16221 15.457 7.41385 14.677 6.76174 13.7938C5.49189 12.0722 4.51937 10.1826 3.64554 8.23881C3.44888 7.80104 3.59276 7.56681 4.0757 7.55773C4.87808 7.54226 5.68045 7.54423 6.48282 7.55699C6.80937 7.56215 7.02543 7.74899 7.1509 8.05713C7.58449 9.12393 8.11605 10.1389 8.78216 11.0803C8.95967 11.3309 9.14087 11.5809 9.39892 11.7579C9.68372 11.9534 9.90077 11.8888 10.0351 11.5708C10.121 11.3688 10.1581 11.1527 10.1767 10.9361C10.2406 10.1944 10.2482 9.45293 10.1377 8.71415C10.069 8.25183 9.80894 7.95327 9.34809 7.86586C9.11337 7.82142 9.14774 7.73451 9.26191 7.60045C9.46005 7.36868 9.64567 7.22529 10.0167 7.22529L12.7943 7.2248C13.232 7.31073 13.3303 7.50715 13.3897 7.94811L13.3921 11.0348C13.387 11.2055 13.4778 11.7113 13.7842 11.823C14.0297 11.904 14.1918 11.7071 14.3386 11.5517C15.0047 10.8448 15.4793 10.0105 15.9043 9.14701C16.0919 8.7662 16.2537 8.37213 16.4108 7.97733C16.5277 7.6854 16.7094 7.54177 17.0389 7.54668L19.7136 7.54987C19.7924 7.54987 19.8725 7.55061 19.9506 7.56411C20.4014 7.64121 20.5248 7.83517 20.3854 8.27491C20.1659 8.96581 19.7394 9.54132 19.3225 10.1183C18.8757 10.736 18.3991 11.3322 17.9567 11.9526C17.5501 12.5198 17.5822 12.8053 18.087 13.2978Z" fill="currentColor"/>
    </symbol>

    <symbol id="tg" width="100%" height="100%" viewBox="0 0 24 24">
      <path fill-rule="evenodd" clip-rule="evenodd" d="M12 24C18.6274 24 24 18.6274 24 12C24 5.37258 18.6274 0 12 0C5.37258 0 0 5.37258 0 12C0 18.6274 5.37258 24 12 24ZM12.2628 8.57623C11.1862 9.04718 9.04219 10.0179 5.82162 11.4788C5.30633 11.6999 5.03029 11.9113 5.00268 12.1227C4.96193 12.4803 5.39038 12.6192 5.96836 12.8065C6.04294 12.8307 6.12001 12.8557 6.19889 12.882C6.76939 13.0743 7.52392 13.2953 7.91959 13.3049C8.27845 13.3145 8.67412 13.1608 9.1158 12.8436C12.1247 10.7195 13.6706 9.64307 13.7718 9.62385C13.8454 9.60462 13.9374 9.5854 14.0019 9.64307C14.0663 9.70074 14.0663 9.81607 14.0571 9.8449C14.0132 10.036 12.2181 11.7766 11.4012 12.5687C11.1908 12.7728 11.0453 12.9139 11.0113 12.9493C10.925 13.0421 10.8372 13.13 10.7527 13.2144C10.2245 13.7425 9.82812 14.1388 10.7721 14.785C11.2012 15.081 11.5474 15.3276 11.8882 15.5705C12.3002 15.8641 12.7044 16.1522 13.2381 16.515C13.3639 16.6013 13.4842 16.6908 13.6017 16.778C14.0601 17.1186 14.4737 17.426 14.9864 17.3801C15.2809 17.3512 15.5845 17.0629 15.741 16.1979C16.109 14.1603 16.8267 9.72957 16.9924 7.90345C17.0108 7.74967 16.9924 7.54784 16.974 7.45173C16.9556 7.35561 16.928 7.23067 16.8175 7.13456C16.6795 7.01922 16.4771 7 16.3851 7C15.971 7.00961 15.3269 7.24028 12.2628 8.57623Z" fill="currentColor"/>
    </symbol>

    <symbol id="play" width="100%" height="100%" viewBox="0 0 28 34">
      <path d="M0.875244 33.8182L27.8752 17.0001L0.875651 0.181885L0.875244 33.8182Z" fill="currentColor"/>
    </symbol>

    <symbol id="calendar" width="100%" height="100%" viewBox="0 0 16 16">
      <path fill-rule="evenodd" clip-rule="evenodd" d="M4 0C3.44772 0 3 0.447715 3 1V2H2C0.895431 2 0 2.89543 0 4V14C0 15.1046 0.895431 16 2 16H14C15.1046 16 16 15.1046 16 14V4C16 2.89543 15.1046 2 14 2H13V1C13 0.447715 12.5523 0 12 0C11.4477 0 11 0.447715 11 1V2H5V1C5 0.447715 4.55228 0 4 0ZM4 5C3.44772 5 3 5.44772 3 6C3 6.55228 3.44772 7 4 7H12C12.5523 7 13 6.55228 13 6C13 5.44772 12.5523 5 12 5H4Z" fill="currentColor"/>
    </symbol>

    <symbol id="marks" width="100%" height="100%" viewBox="0 0 19 17">
      <path d="M5 0.519998L6.872 1.864C6.52 2.312 6.12 2.952 5.672 3.784C5.256 4.616 4.888 5.544 4.568 6.568C4.248 7.56 4.104 8.52 4.136 9.448C4.36 9.384 4.536 9.352 4.664 9.352C4.824 9.32 4.984 9.304 5.144 9.304C6.008 9.304 6.776 9.56 7.448 10.072C8.12 10.584 8.456 11.384 8.456 12.472C8.456 13.432 8.136 14.28 7.496 15.016C6.888 15.72 6.056 16.072 5 16.072C3.528 16.104 2.424 15.64 1.688 14.68C0.952 13.688 0.584 12.472 0.584 11.032C0.584 9.496 0.936 7.832 1.64 6.04C2.376 4.216 3.496 2.376 5 0.519998ZM14.6 0.519998L16.472 1.864C16.12 2.312 15.72 2.952 15.272 3.784C14.856 4.616 14.488 5.544 14.168 6.568C13.848 7.56 13.704 8.52 13.736 9.448C13.96 9.384 14.136 9.352 14.264 9.352C14.424 9.32 14.584 9.304 14.744 9.304C15.608 9.304 16.376 9.56 17.048 10.072C17.72 10.584 18.056 11.384 18.056 12.472C18.056 13.432 17.736 14.28 17.096 15.016C16.488 15.72 15.656 16.072 14.6 16.072C13.128 16.104 12.024 15.64 11.288 14.68C10.552 13.688 10.184 12.472 10.184 11.032C10.184 9.496 10.536 7.832 11.24 6.04C11.976 4.216 13.096 2.376 14.6 0.519998Z" fill="currentColor"/>
    </symbol>

  </defs>
</svg>