<?xml version="1.0" standalone="no"?>
<!DOCTYPE svg PUBLIC "-//W3C//DTD SVG 20010904//EN"
 "http://www.w3.org/TR/2001/REC-SVG-20010904/DTD/svg10.dtd">
<svg version="1.0" xmlns="http://www.w3.org/2000/svg"
 width="260.000000pt" height="260.000000pt" viewBox="0 0 260.000000 260.000000"
 preserveAspectRatio="xMidYMid meet">
<metadata>
Created by potrace 1.14, written by Peter Selinger 2001-2017
</metadata>
<g transform="translate(0.000000,260.000000) scale(0.100000,-0.100000)"
fill="#000000" stroke="none">
<path d="M1212 2405 c-26 -12 -63 -38 -81 -57 -30 -32 -36 -34 -61 -25 -75 29
-150 -78 -100 -143 16 -21 26 -25 69 -24 l50 2 6 -63 c6 -53 0 -153 -9 -163
-2 -1 -16 14 -31 34 -26 34 -27 38 -12 49 10 7 17 22 17 34 0 17 -6 21 -34 21
-19 0 -38 5 -41 10 -3 6 -15 10 -27 10 -15 0 -18 4 -13 18 7 19 8 22 6 39 -2
20 -109 15 -121 -6 -9 -15 -9 -15 -10 0 0 9 -11 24 -25 33 -17 11 -25 26 -25
46 0 38 -18 39 -59 4 -39 -32 -39 -39 -1 -53 27 -9 35 -20 31 -43 0 -4 8 -12
19 -18 22 -12 28 -42 8 -39 -30 4 -38 -3 -38 -28 0 -14 -3 -24 -6 -20 -4 3
-22 0 -40 -8 -19 -8 -34 -12 -34 -9 0 3 -9 0 -21 -6 -12 -7 -18 -18 -15 -26 5
-13 -5 -19 -26 -15 -9 1 -11 -12 -9 -45 2 -14 -5 -23 -20 -27 -17 -5 -21 -11
-17 -32 4 -21 1 -28 -18 -35 -13 -5 -24 -13 -24 -17 0 -5 -10 -13 -22 -18 -13
-6 -24 -19 -26 -30 -2 -11 -11 -26 -20 -32 -12 -10 -13 -18 -5 -36 9 -19 8
-26 -8 -35 -15 -10 -17 -16 -7 -43 9 -26 8 -33 -6 -41 -9 -5 -16 -15 -16 -22
0 -7 -9 -21 -21 -32 -15 -13 -19 -26 -15 -46 3 -16 1 -28 -4 -28 -16 0 -12
-22 7 -43 13 -15 15 -21 6 -24 -18 -6 -16 -38 2 -53 12 -10 12 -15 -1 -35 -8
-12 -12 -30 -8 -39 3 -9 2 -16 -4 -16 -15 0 -24 -31 -12 -45 6 -7 8 -25 4 -40
-5 -21 -3 -27 15 -32 21 -5 30 -23 11 -23 -18 0 -11 -26 13 -48 20 -19 23 -30
21 -84 -2 -41 1 -65 9 -70 7 -4 12 -17 12 -30 0 -15 8 -24 25 -28 19 -5 24
-12 22 -28 -2 -14 3 -24 15 -28 10 -3 25 -8 33 -11 13 -4 13 -5 0 -12 -8 -5
-32 -12 -53 -15 -69 -13 -62 -64 18 -140 74 -71 154 -110 212 -102 40 5 44 4
53 -19 9 -23 19 -29 46 -26 7 1 14 -7 16 -16 4 -16 -3 -18 -71 -18 -108 0
-113 -3 -96 -59 12 -39 12 -53 0 -94 -19 -60 -19 -66 3 -57 33 14 139 13 208
-1 162 -35 277 -4 335 90 16 27 24 30 82 33 l65 5 60 -60 c89 -90 150 -103
326 -72 41 8 99 10 143 6 l73 -6 -6 28 c-4 15 -11 35 -16 45 -8 15 0 65 18
112 7 17 -42 28 -113 27 -44 -1 -51 2 -50 17 1 12 7 17 19 13 20 -5 51 15 43
29 -10 15 27 28 46 16 44 -28 210 65 263 147 42 65 32 85 -50 100 -39 7 -41
15 -5 27 24 8 31 16 29 32 -2 15 4 23 22 27 17 4 24 13 23 26 -1 10 5 23 13
27 10 6 13 26 12 73 -1 36 2 68 8 72 26 19 36 42 25 56 -9 11 -6 17 14 30 21
14 24 20 15 31 -8 10 -8 19 1 34 10 15 10 26 2 43 -32 67 -36 87 -19 103 18
19 20 31 6 40 -14 9 -12 21 6 40 15 14 15 18 1 33 -11 12 -13 22 -6 34 7 13 5
22 -11 35 -11 10 -20 25 -20 34 0 9 -7 19 -15 23 -12 4 -14 15 -9 44 5 31 3
40 -10 45 -13 5 -15 11 -6 26 14 27 13 41 -5 41 -9 0 -15 9 -15 24 0 13 -7 29
-15 36 -8 7 -15 9 -15 4 0 -5 -7 2 -16 14 -8 12 -22 22 -30 22 -8 0 -14 6 -15
13 -1 6 -2 23 -2 37 -2 19 -7 24 -21 22 -15 -3 -18 1 -13 18 7 28 -1 50 -19
50 -8 0 -14 7 -14 15 0 13 -22 30 -42 34 -33 7 -76 34 -81 51 -3 12 -13 20
-26 20 -26 0 -28 20 -2 27 11 3 21 17 25 34 4 23 12 31 36 35 25 6 28 9 19 26
-13 23 -69 59 -82 51 -5 -3 -6 -14 -4 -25 4 -13 -3 -29 -19 -45 -13 -13 -24
-28 -24 -33 0 -13 -17 -13 -22 0 -2 6 -27 13 -56 15 -59 5 -73 -8 -54 -50 9
-20 8 -22 -10 -17 -11 3 -24 -1 -29 -9 -5 -8 -20 -13 -38 -11 -23 3 -31 -1
-36 -19 -5 -15 -2 -26 9 -34 17 -13 22 -35 8 -35 -5 0 -15 -11 -22 -25 -24
-45 -33 -16 -26 89 3 55 7 106 8 112 1 8 9 8 29 0 39 -14 81 2 93 36 27 76
-42 152 -114 125 -26 -9 -34 -9 -37 0 -30 86 -182 134 -281 88z m164 -78 c16
-8 39 -29 51 -46 20 -26 21 -34 11 -58 -24 -53 -53 -53 -43 0 14 72 10 87 -20
87 -14 0 -28 -7 -32 -16 -5 -15 -7 -15 -15 0 -12 21 -44 21 -52 0 -5 -14 -9
-13 -24 6 -17 21 -19 22 -36 5 -10 -11 -14 -24 -10 -34 4 -9 9 -33 12 -53 3
-30 1 -36 -13 -34 -23 3 -45 34 -45 61 0 30 50 78 97 92 45 14 79 11 119 -10z
m-86 -108 c0 -31 -7 -40 -26 -32 -17 6 -18 49 -1 67 15 17 27 2 27 -35z m66
16 c7 -37 -2 -56 -21 -49 -16 6 -16 49 0 74 9 15 15 8 21 -25z m-138 -300 l-1
-184 -28 37 c-15 20 -25 40 -23 44 13 20 30 161 27 221 -2 54 0 67 12 67 13 0
15 -27 13 -185z m69 -40 c-1 -124 -5 -225 -9 -225 -22 0 -28 54 -28 244 0 195
1 206 19 206 18 0 19 -11 18 -225z m69 23 c-1 -175 -3 -206 -18 -227 -17 -24
-18 -16 -16 202 1 208 2 227 18 227 16 0 17 -17 16 -202z m54 115 c0 -49 6
-117 14 -152 13 -62 12 -64 -10 -90 l-24 -26 1 178 c1 97 6 177 10 177 5 0 9
-39 9 -87z m-350 -193 c-6 -11 -13 -20 -15 -20 -3 0 -5 9 -5 20 0 11 7 20 15
20 13 0 14 -4 5 -20z m505 2 c0 -18 -20 -15 -23 4 -3 10 1 15 10 12 7 -3 13
-10 13 -16z m-562 -58 c16 -20 16 -22 -2 -38 -17 -16 -19 -15 -35 10 -17 24
-17 26 1 39 10 7 18 13 18 12 0 -1 8 -11 18 -23z m650 3 c6 4 0 -8 -12 -26
-21 -30 -25 -31 -39 -17 -13 13 -14 19 -2 40 11 22 15 23 27 10 8 -8 20 -11
26 -7z m-735 -111 c-27 -21 -138 -79 -144 -74 -2 2 -1 21 3 42 5 34 8 37 30
31 19 -4 26 -1 30 15 3 11 14 20 25 20 12 0 22 9 26 22 5 21 6 21 29 -8 l23
-29 -22 -19z m286 -15 c6 -8 11 -27 12 -43 2 -35 -2 -31 -59 47 -27 39 -33 54
-25 68 8 16 12 13 35 -20 14 -21 30 -44 37 -52z m539 45 c11 1 17 -6 17 -18 0
-17 5 -20 29 -16 27 4 29 2 34 -36 3 -22 5 -42 3 -43 -3 -3 -65 30 -121 65
l-44 27 21 33 21 33 11 -23 c7 -13 20 -22 29 -22z m-270 21 c3 -7 -15 -39 -39
-72 -41 -54 -44 -56 -44 -31 0 26 55 116 71 116 4 0 9 -6 12 -13z m-325 -142
c49 -67 52 -76 40 -94 -13 -19 -17 -16 -67 50 -41 55 -51 76 -47 95 4 13 10
24 14 24 4 0 31 -34 60 -75z m382 39 c0 -8 -24 -45 -54 -84 -45 -58 -56 -67
-66 -55 -16 19 -12 28 46 108 37 51 51 64 61 55 7 -6 13 -17 13 -24z m-177
-39 c-3 -9 -8 -14 -10 -11 -3 3 -2 9 2 15 9 16 15 13 8 -4z m-278 -80 c30 -41
55 -80 55 -86 0 -6 -14 -29 -31 -50 l-31 -40 -25 28 c-26 29 -65 102 -78 142
-6 19 -1 30 21 52 16 15 30 28 31 28 1 1 27 -33 58 -74z m538 40 l27 -24 -17
-43 c-18 -48 -81 -148 -92 -148 -4 0 -22 20 -40 45 l-32 45 51 66 c27 37 50
71 50 75 0 16 25 9 53 -16z m-845 -14 c8 -105 71 -262 137 -338 l33 -38 -75
-100 c-90 -122 -88 -119 -109 -111 -15 6 -16 8 0 24 20 23 21 42 1 42 -11 0
-14 7 -10 23 4 16 -4 31 -31 57 -31 30 -33 36 -20 46 19 13 21 44 4 44 -9 0
-9 3 0 12 16 16 15 43 -3 58 -8 7 -12 16 -10 21 3 4 -4 18 -15 29 -12 12 -20
23 -18 24 2 2 13 9 26 15 15 8 21 18 18 28 -4 9 -2 21 4 29 8 8 8 29 2 63 -8
47 -8 50 12 53 15 2 21 10 20 26 -1 34 31 29 34 -7z m1094 -3 c2 -13 10 -23
18 -23 18 0 24 -50 9 -77 -8 -14 -7 -24 3 -35 7 -9 11 -26 10 -39 -2 -16 2
-24 12 -24 23 0 31 -21 12 -32 -9 -5 -16 -20 -16 -32 0 -13 -6 -26 -14 -29
-15 -6 -16 -23 -1 -46 5 -10 4 -16 -3 -19 -17 -5 -15 -30 4 -40 16 -9 15 -12
-2 -35 -10 -15 -24 -27 -30 -27 -15 0 -25 -26 -18 -44 3 -7 -2 -16 -10 -19
-21 -8 -20 -26 0 -49 16 -16 15 -18 -1 -24 -9 -4 -20 -2 -24 3 -3 6 -16 23
-29 39 -12 16 -45 60 -72 98 l-49 70 33 41 c81 98 138 242 139 353 0 22 25 13
29 -10z m-506 -98 c0 -20 -7 -25 -19 -13 -4 3 -2 12 4 20 15 17 15 17 15 -7z
m-99 -12 c-3 -8 -6 -5 -6 6 -1 11 2 17 5 13 3 -3 4 -12 1 -19z m-67 -77 c0
-27 -42 -73 -57 -63 -9 6 -6 17 13 45 27 41 44 47 44 18z m277 -55 c-7 -20
-24 -15 -45 13 -13 18 -19 37 -15 47 5 15 11 12 35 -16 15 -19 27 -39 25 -44z
m-182 54 c3 -5 1 -10 -4 -10 -6 0 -11 5 -11 10 0 6 2 10 4 10 3 0 8 -4 11 -10z
m65 -91 c0 -11 -4 -18 -10 -14 -5 3 -7 12 -3 20 7 21 13 19 13 -6z m-340 -159
c0 -5 -34 -54 -75 -109 -41 -55 -75 -106 -76 -113 0 -7 -5 0 -9 16 -8 25 -2
37 48 105 73 99 93 122 103 115 5 -3 9 -9 9 -14z m670 -90 c54 -75 69 -103 62
-115 -7 -13 -24 5 -86 91 -58 80 -74 109 -64 115 7 5 14 9 15 9 1 0 34 -45 73
-100z m-610 25 c9 -23 2 -36 -56 -115 -43 -59 -72 -90 -85 -90 -35 0 -21 35
54 133 39 53 73 97 75 97 1 0 7 -11 12 -25z m500 -23 c14 -20 44 -63 68 -95
41 -54 50 -86 27 -94 -16 -5 -27 7 -88 91 -57 79 -62 91 -51 120 9 24 16 20
44 -22z m-416 -61 c34 -38 30 -125 -6 -126 -7 -1 -32 -9 -55 -19 -43 -18 -56
-42 -28 -52 17 -7 20 -40 4 -50 -6 -3 -15 -2 -21 4 -6 6 -16 8 -22 6 -7 -3
-13 7 -14 22 -3 35 -10 44 -29 37 -9 -3 19 39 62 95 42 56 81 102 85 102 4 0
15 -8 24 -19z m375 -64 c33 -46 67 -90 75 -97 22 -18 20 -27 -6 -26 -19 1 -23
-4 -22 -26 0 -21 -5 -27 -30 -32 -36 -8 -44 3 -41 58 2 49 -11 72 -31 55 -24
-19 -64 15 -64 54 0 36 35 95 57 97 1 0 29 -38 62 -83z m-645 -463 c4 -11 13
-14 31 -10 18 5 27 1 35 -15 10 -18 9 -20 -7 -16 -10 3 -39 10 -65 17 -48 13
-59 24 -35 33 23 10 35 7 41 -9z m846 6 c0 -5 8 -10 18 -11 21 -1 -85 -38
-112 -38 -18 -1 -18 0 -1 19 15 16 21 18 33 8 12 -10 18 -9 31 9 17 24 31 29
31 13z"/>
</g>
</svg>
